DataType=double
version=3
OpenSimVersion=4.5
endheader
time	pelvis_tilt	pelvis_list	pelvis_rotation	pelvis_tx	pelvis_ty	pelvis_tz	hip_flexion_r	hip_adduction_r	hip_rotation_r	knee_angle_r	knee_frontal_r	knee_adduction_r	knee_angle_r_beta	ankle_angle_r	subtalar_angle_r	mtp_angle_r	hip_flexion_l	hip_adduction_l	hip_rotation_l	knee_angle_l	knee_frontal_l	knee_adduction_l	knee_angle_l_beta	ankle_angle_l	subtalar_angle_l	mtp_angle_l	lumbar_extension	lumbar_bending	lumbar_rotation	arm_flex_r	arm_add_r	arm_rot_r	elbow_flex_r	pro_sup_r	wrist_flex_r	wrist_dev_r	arm_flex_l	arm_add_l	arm_rot_l	elbow_flex_l	pro_sup_l	wrist_flex_l	wrist_dev_l
2.76	-0.1296230048595932	-0.07454441847244367	-0.01295966595226679	0.8171055403811834	0.9498655550316971	0.4942673318632108	-0.112809352616667	0.07911268185168337	0.07837767648648013	0.2452315333522605	0	0	0.2452315333522605	0.1645079993030281	0.05855806167748368	-0.4820481828188534	0.5632697413599637	-0.1049602551810099	0.02391693053278335	0.1851770160445996	0	0	0.1851770160445996	0.1038691201859855	0.05284265502580222	-0.2743737785251362	-0.07346052312248905	0.09341252488309164	0.002080013275014649	0.08682089629262943	-0.3632879889969776	-0.05943972100570865	1.100570909563213	1.57079633	0	0	-0.3233397114954417	-0.2425133774480666	0.1150073152417794	0.6437024086237124	1.57079633	0	0
2.765	-0.128339784551168	-0.0705724728509708	-0.0126593799192774	0.8178213274540622	0.9494449391644098	0.4934450821156669	-0.1162837700347339	0.07312523852541011	0.07153872332967029	0.2554256058016661	0	0	0.2554256058016661	0.1607703486136011	0.06122053986682092	-0.5049329951634173	0.559938571171648	-0.09934723590440843	0.02502187594208204	0.1914710551023044	0	0	0.1914710551023044	0.09694026650948474	0.04937986326247225	-0.2780625188397801	-0.07425473065498438	0.08929031555266818	0.001616954190358432	0.08467228819491451	-0.3619533263334974	-0.05969070828331387	1.098528172624519	1.57079633	0	0	-0.3248025708902877	-0.2427636981816488	0.1138570461230502	0.6441582821570998	1.57079633	0	0
2.77	-0.1269904755819096	-0.066322273696231	-0.01235461972825153	0.8185753663023667	0.9490539981647271	0.4926069986331325	-0.119192733985253	0.0667391031921119	0.06446494774126627	0.2668007337332592	0	0	0.2668007337332592	0.156038360829522	0.06324236994986437	-0.5279615336245591	0.5564621373930065	-0.09344870631846068	0.02604808661613738	0.1985134281266203	0	0	0.1985134281266203	0.08940263411611203	0.04510400883202359	-0.2815440208219156	-0.0750402924336766	0.084834453018531	0.00114004993930903	0.08240209864014714	-0.360487921099198	-0.05991514208315656	1.095933088989331	1.57079633	0	0	-0.3260154035547521	-0.243132864984015	0.112779902196872	0.6444857016764848	1.57079633	0	0
2.775	-0.1255905217226686	-0.06182417480314666	-0.01205716685234175	0.8193629507195573	0.948693256233296	0.4917544147446438	-0.1214704731586975	0.05998536126990906	0.05721240440885825	0.2794195932386689	0	0	0.2794195932386689	0.1502322209174535	0.06455827222633384	-0.5508757430304466	0.5528611340106492	-0.08729991895276945	0.02699204787145789	0.2062065157458232	0	0	0.2062065157458232	0.08136978627562962	0.04007330808440092	-0.2847614263900443	-0.07580613657894254	0.08008200686990778	0.0006538604021706785	0.08002922201006787	-0.3589001449829444	-0.06010467453944348	1.092773526913777	1.57079633	0	0	-0.326971011167548	-0.2436182038636105	0.1117899768205569	0.6446916696630552	1.57079633	0	0
2.78	-0.1241564370589035	-0.05711074092406646	-0.01177976916746051	0.820178889777226	0.9483631810704849	0.4908889110487948	-0.1230510562755402	0.05289927984260821	0.04984362279654315	0.2933388392588931	0	0	0.2933388392588931	0.1432820891944819	0.06510881943122662	-0.5734005669254454	0.549156765698784	-0.0809383518286324	0.02785207381584319	0.2144535983888987	0	0	0.2144535983888987	0.07296493752946893	0.03435290350739961	-0.2876600511570582	-0.07654108675828843	0.07507303357646217	0.0001632266875103598	0.07757335001540752	-0.3571990570375403	-0.06025069631375451	1.089040377706281	1.57079633	0	0	-0.3276631260724741	-0.2442167092299152	0.1109012158244092	0.6447861125612713	1.57079633	0	0
2.785	-0.1227053796473398	-0.0522162582408837	-0.01153594901595822	0.8210175816184681	0.9480642029844034	0.4900123007438765	-0.1238696764670998	0.0455199489956085	0.04242671570262584	0.3086076061678417	0	0	0.3086076061678417	0.1351305760686436	0.064842132985651	-0.595248603681803	0.5453699558780449	-0.07440319883221834	0.02862830387318528	0.2231594930506374	0	0	0.2231594930506374	0.06431845771142818	0.02801369816984055	-0.2901884640665578	-0.07723417853097346	0.06984998388015778	-0.0003268530026227119	0.0750546724283602	-0.3553942980170393	-0.06034437841626091	1.08472788919162	1.57079633	0	0	-0.328086576337962	-0.2449250572701314	0.1101270651806268	0.6447816168829797	1.57079633	0	0
2.79	-0.1212546901110221	-0.04717623298299552	-0.01133977377171768	0.8218730949164114	0.947796733929698	0.4891266101250488	-0.1238640076962595	0.03788987380885108	0.03503431195379865	0.3252660110987939	0	0	0.3252660110987939	0.1257351033403395	0.06371552232099878	-0.6161253107048703	0.5415205601728633	-0.06773483948639952	0.02932264792734183	0.2322311462236952	0	0	0.2322311462236952	0.05556524015020478	0.02113115104651175	-0.2922995322481366	-0.07787500009461565	0.06445707858613316	-0.0008113618414716988	0.07249356461234185	-0.3534959666750008	-0.06037673966111669	1.07983394526188	1.57079633	0	0	-0.3282374229580187	-0.2457396230398421	0.1094800902081676	0.6446931228847894	1.57079633	0	0
2.795	-0.1198214134674909	-0.04202689269814127	-0.01120559766147072	0.8227392555710586	0.9475611857327502	0.4882340550177132	-0.1229755953241979	0.03005452719001005	0.02774234100485813	0.3433436923642981	0	0	0.3433436923642981	0.1150700788061983	0.06169701640096365	-0.6357346480024455	0.5376266161799356	-0.06097430557562872	0.02993867887033015	0.2415781840729257	0	0	0.2415781840729257	0.04684199768537856	0.01378405816596945	-0.2939514002374133	-0.0784540448685742	0.05893967204247625	-0.001285412141024874	0.06991027090608221	-0.3515144839285023	-0.06033873963556598	1.074360288636645	1.57079633	0	0	-0.3281130658726237	-0.2466564983849613	0.1089715772898321	0.6445375852589184	1.57079633	0	0
2.8	-0.1184218244634867	-0.03680470311133085	-0.01114778409331811	0.8236097362137004	0.9473579866195313	0.4873370139691491	-0.1211512379036833	0.02206187306400426	0.02062870093987362	0.3628584198248606	0	0	0.3628584198248606	0.1031288138254446	0.05876673733235412	-0.653785034571744	0.5337036596547055	-0.05416276047376151	0.03048147398416079	0.2511134197847874	0	0	0.2511134197847874	0.03828455075569856	0.006053342866486025	-0.2951083741191341	-0.07896306098385734	0.05334362116442124	-0.001744396855262602	0.06732459271193594	-0.3494604510460602	-0.06022139567624652	1.068312684382204	1.57079633	0	0	-0.3277123162594202	-0.2476715088414438	0.1086111312007376	0.6443336095684664	1.57079633	0	0
2.805	-0.1170709774912359	-0.03154591153420799	-0.01118041782242826	0.8244781462118617	0.9471875950886666	0.4864379990403156	-0.1183443145361667	0.01396186849081053	0.01377184420940582	0.3838148168145481	0	0	0.3838148168145481	0.08992511832477117	0.05491806832923974	-0.6699954763495608	0.5297641351075066	-0.04734100484122398	0.03095740915482005	0.260753317242225	0	0	0.260753317242225	0.03002517103820111	-0.001979123546719697	-0.2957416836846873	-0.0793953812206076	0.04771467581548063	-0.002184138954834088	0.06475558941607029	-0.3473445079743098	-0.06001592103572506	1.061701022193516	1.57079633	0	0	-0.3270354334778424	-0.2487802287703042	0.10840628279517	0.6441010723383067	1.57079633	0	0
2.81	-0.1157823015010545	-0.02628612564354711	-0.01131701588875663	0.825338120086105	0.9470505101774025	0.4855396249872794	-0.1145160120734644	0.005805952235211709	0.00724931716674819	0.4062032340371022	0	0	0.4062032340371022	0.07549451436347256	0.0501585723859703	-0.6841017135475838	0.5258169253678472	-0.04054901976055486	0.03137391235360899	0.2704184100926592	0	0	0.2704184100926592	0.02219004209951248	-0.0102316516283058	-0.2958300992681186	-0.07974621626888104	0.04209790417186725	-0.002601032668047533	0.06222129866449481	-0.3451771976960805	-0.05971388019260317	1.054539356110638	1.57079633	0	0	-0.3260841262441194	-0.2499779948323759	0.108362122952757	0.6438607318730654	1.57079633	0	0
2.815	-0.1145672581995826	-0.02105993435002159	-0.01157024541792817	0.8261834025166203	0.9469472772627976	0.4846445774973158	-0.1096364091051453	-0.002353473634540439	0.001136290031010206	0.4299988145773372	0	0	0.4299988145773372	0.05989501767805831	0.04451062372543681	-0.6958622285811693	0.5218670199745525	-0.03382555560156835	0.03173918509080927	0.2800336757298134	0	0	0.2800336757298134	0.01489689518182075	-0.01862379729044613	-0.2953603843882815	-0.08001289441549717	0.03653716469625207	-0.002992170660707963	0.05973848007915745	-0.3429688420984158	-0.05930735613644199	1.046845881433376	1.57079633	0	0	-0.3248615190325411	-0.251259918393784	0.1084809792713056	0.6436338361056051	1.57079633	0	0
